<mxfile host="app.diagrams.net" agent="Mozilla/5.0 (Windows NT 10.0; Win64; x64; rv:139.0) Gecko/20100101 Firefox/139.0" version="27.1.3">
  <diagram name="Location List Page" id="rCptL8N_H8RJZEVftLJj">
    <mxGraphModel dx="1426" dy="751" grid="1" gridSize="10" guides="1" tooltips="1" connect="1" arrows="1" fold="1" page="1" pageScale="1" pageWidth="1169" pageHeight="827" math="0" shadow="0">
      <root>
        <mxCell id="2YiECAexeY38DyLzUJac-0" />
        <mxCell id="2YiECAexeY38DyLzUJac-1" parent="2YiECAexeY38DyLzUJac-0" />
        <mxCell id="2YiECAexeY38DyLzUJac-2" value="" style="rounded=0;whiteSpace=wrap;html=1;" parent="2YiECAexeY38DyLzUJac-1" vertex="1">
          <mxGeometry x="10" y="10" width="1150" height="70" as="geometry" />
        </mxCell>
        <mxCell id="2YiECAexeY38DyLzUJac-3" value="People Counting Demo" style="text;strokeColor=none;fillColor=none;html=1;fontSize=24;fontStyle=1;verticalAlign=middle;align=center;" parent="2YiECAexeY38DyLzUJac-1" vertex="1">
          <mxGeometry x="460" y="25" width="250" height="40" as="geometry" />
        </mxCell>
        <mxCell id="2YiECAexeY38DyLzUJac-4" value="" style="shape=image;html=1;verticalAlign=top;verticalLabelPosition=bottom;labelBackgroundColor=#ffffff;imageAspect=0;aspect=fixed;image=https://cdn4.iconfinder.com/data/icons/evil-icons-user-interface/64/menu-128.png" parent="2YiECAexeY38DyLzUJac-1" vertex="1">
          <mxGeometry x="20" y="15" width="60" height="60" as="geometry" />
        </mxCell>
        <mxCell id="2YiECAexeY38DyLzUJac-5" value="" style="rounded=0;whiteSpace=wrap;html=1;" parent="2YiECAexeY38DyLzUJac-1" vertex="1">
          <mxGeometry x="900" y="90" width="200" height="60" as="geometry" />
        </mxCell>
        <mxCell id="2YiECAexeY38DyLzUJac-6" value="" style="shape=image;html=1;verticalAlign=top;verticalLabelPosition=bottom;labelBackgroundColor=#ffffff;imageAspect=0;aspect=fixed;image=https://cdn3.iconfinder.com/data/icons/web-ui-3/128/Plus-2-128.png" parent="2YiECAexeY38DyLzUJac-1" vertex="1">
          <mxGeometry x="910" y="95" width="50" height="50" as="geometry" />
        </mxCell>
        <mxCell id="2YiECAexeY38DyLzUJac-7" value="Add Device" style="text;strokeColor=none;fillColor=none;html=1;fontSize=24;fontStyle=1;verticalAlign=middle;align=center;" parent="2YiECAexeY38DyLzUJac-1" vertex="1">
          <mxGeometry x="960" y="100" width="140" height="40" as="geometry" />
        </mxCell>
        <mxCell id="2YiECAexeY38DyLzUJac-8" value="" style="rounded=1;whiteSpace=wrap;html=1;" parent="2YiECAexeY38DyLzUJac-1" vertex="1">
          <mxGeometry x="80" y="170" width="1010" height="60" as="geometry" />
        </mxCell>
        <mxCell id="2YiECAexeY38DyLzUJac-10" value="American Eagle" style="text;strokeColor=none;fillColor=none;html=1;fontSize=24;fontStyle=1;verticalAlign=middle;align=center;" parent="2YiECAexeY38DyLzUJac-1" vertex="1">
          <mxGeometry x="140" y="180" width="100" height="40" as="geometry" />
        </mxCell>
        <mxCell id="2YiECAexeY38DyLzUJac-11" value="" style="shape=ext;double=1;rounded=1;whiteSpace=wrap;html=1;" parent="2YiECAexeY38DyLzUJac-1" vertex="1">
          <mxGeometry x="690" y="175" width="170" height="50" as="geometry" />
        </mxCell>
        <mxCell id="2YiECAexeY38DyLzUJac-12" value="" style="shape=ext;double=1;rounded=1;whiteSpace=wrap;html=1;" parent="2YiECAexeY38DyLzUJac-1" vertex="1">
          <mxGeometry x="870" y="175" width="100" height="50" as="geometry" />
        </mxCell>
        <mxCell id="2YiECAexeY38DyLzUJac-13" value="" style="shape=ext;double=1;rounded=1;whiteSpace=wrap;html=1;" parent="2YiECAexeY38DyLzUJac-1" vertex="1">
          <mxGeometry x="980" y="175" width="100" height="50" as="geometry" />
        </mxCell>
        <mxCell id="2YiECAexeY38DyLzUJac-14" value="View Counts" style="text;strokeColor=none;fillColor=none;html=1;fontSize=24;fontStyle=1;verticalAlign=middle;align=center;" parent="2YiECAexeY38DyLzUJac-1" vertex="1">
          <mxGeometry x="725" y="180" width="100" height="40" as="geometry" />
        </mxCell>
        <mxCell id="2YiECAexeY38DyLzUJac-15" value="Edit" style="text;strokeColor=none;fillColor=none;html=1;fontSize=24;fontStyle=1;verticalAlign=middle;align=center;" parent="2YiECAexeY38DyLzUJac-1" vertex="1">
          <mxGeometry x="870" y="180" width="100" height="40" as="geometry" />
        </mxCell>
        <mxCell id="2YiECAexeY38DyLzUJac-16" value="Delete" style="text;strokeColor=none;fillColor=none;html=1;fontSize=24;fontStyle=1;verticalAlign=middle;align=center;" parent="2YiECAexeY38DyLzUJac-1" vertex="1">
          <mxGeometry x="980" y="180" width="100" height="40" as="geometry" />
        </mxCell>
        <mxCell id="2YiECAexeY38DyLzUJac-17" value="" style="rounded=1;whiteSpace=wrap;html=1;" parent="2YiECAexeY38DyLzUJac-1" vertex="1">
          <mxGeometry x="80" y="240" width="1010" height="60" as="geometry" />
        </mxCell>
        <mxCell id="2YiECAexeY38DyLzUJac-19" value="Woods Grocery" style="text;strokeColor=none;fillColor=none;html=1;fontSize=24;fontStyle=1;verticalAlign=middle;align=center;" parent="2YiECAexeY38DyLzUJac-1" vertex="1">
          <mxGeometry x="140" y="250" width="100" height="40" as="geometry" />
        </mxCell>
        <mxCell id="2YiECAexeY38DyLzUJac-20" value="" style="shape=ext;double=1;rounded=1;whiteSpace=wrap;html=1;" parent="2YiECAexeY38DyLzUJac-1" vertex="1">
          <mxGeometry x="690" y="245" width="170" height="50" as="geometry" />
        </mxCell>
        <mxCell id="2YiECAexeY38DyLzUJac-21" value="" style="shape=ext;double=1;rounded=1;whiteSpace=wrap;html=1;" parent="2YiECAexeY38DyLzUJac-1" vertex="1">
          <mxGeometry x="870" y="245" width="100" height="50" as="geometry" />
        </mxCell>
        <mxCell id="2YiECAexeY38DyLzUJac-22" value="" style="shape=ext;double=1;rounded=1;whiteSpace=wrap;html=1;" parent="2YiECAexeY38DyLzUJac-1" vertex="1">
          <mxGeometry x="980" y="245" width="100" height="50" as="geometry" />
        </mxCell>
        <mxCell id="2YiECAexeY38DyLzUJac-23" value="View Counts" style="text;strokeColor=none;fillColor=none;html=1;fontSize=24;fontStyle=1;verticalAlign=middle;align=center;" parent="2YiECAexeY38DyLzUJac-1" vertex="1">
          <mxGeometry x="725" y="250" width="100" height="40" as="geometry" />
        </mxCell>
        <mxCell id="2YiECAexeY38DyLzUJac-24" value="Edit" style="text;strokeColor=none;fillColor=none;html=1;fontSize=24;fontStyle=1;verticalAlign=middle;align=center;" parent="2YiECAexeY38DyLzUJac-1" vertex="1">
          <mxGeometry x="870" y="250" width="100" height="40" as="geometry" />
        </mxCell>
        <mxCell id="2YiECAexeY38DyLzUJac-25" value="Delete" style="text;strokeColor=none;fillColor=none;html=1;fontSize=24;fontStyle=1;verticalAlign=middle;align=center;" parent="2YiECAexeY38DyLzUJac-1" vertex="1">
          <mxGeometry x="980" y="250" width="100" height="40" as="geometry" />
        </mxCell>
        <mxCell id="2YiECAexeY38DyLzUJac-26" value="" style="rounded=1;whiteSpace=wrap;html=1;" parent="2YiECAexeY38DyLzUJac-1" vertex="1">
          <mxGeometry x="80" y="310" width="1010" height="60" as="geometry" />
        </mxCell>
        <mxCell id="2YiECAexeY38DyLzUJac-28" value="Gap" style="text;strokeColor=none;fillColor=none;html=1;fontSize=24;fontStyle=1;verticalAlign=middle;align=center;" parent="2YiECAexeY38DyLzUJac-1" vertex="1">
          <mxGeometry x="140" y="320" width="100" height="40" as="geometry" />
        </mxCell>
        <mxCell id="2YiECAexeY38DyLzUJac-29" value="" style="shape=ext;double=1;rounded=1;whiteSpace=wrap;html=1;" parent="2YiECAexeY38DyLzUJac-1" vertex="1">
          <mxGeometry x="690" y="315" width="170" height="50" as="geometry" />
        </mxCell>
        <mxCell id="2YiECAexeY38DyLzUJac-30" value="" style="shape=ext;double=1;rounded=1;whiteSpace=wrap;html=1;" parent="2YiECAexeY38DyLzUJac-1" vertex="1">
          <mxGeometry x="870" y="315" width="100" height="50" as="geometry" />
        </mxCell>
        <mxCell id="2YiECAexeY38DyLzUJac-31" value="" style="shape=ext;double=1;rounded=1;whiteSpace=wrap;html=1;" parent="2YiECAexeY38DyLzUJac-1" vertex="1">
          <mxGeometry x="980" y="315" width="100" height="50" as="geometry" />
        </mxCell>
        <mxCell id="2YiECAexeY38DyLzUJac-32" value="View Counts" style="text;strokeColor=none;fillColor=none;html=1;fontSize=24;fontStyle=1;verticalAlign=middle;align=center;" parent="2YiECAexeY38DyLzUJac-1" vertex="1">
          <mxGeometry x="725" y="320" width="100" height="40" as="geometry" />
        </mxCell>
        <mxCell id="2YiECAexeY38DyLzUJac-33" value="Edit" style="text;strokeColor=none;fillColor=none;html=1;fontSize=24;fontStyle=1;verticalAlign=middle;align=center;" parent="2YiECAexeY38DyLzUJac-1" vertex="1">
          <mxGeometry x="870" y="320" width="100" height="40" as="geometry" />
        </mxCell>
        <mxCell id="2YiECAexeY38DyLzUJac-34" value="Delete" style="text;strokeColor=none;fillColor=none;html=1;fontSize=24;fontStyle=1;verticalAlign=middle;align=center;" parent="2YiECAexeY38DyLzUJac-1" vertex="1">
          <mxGeometry x="980" y="320" width="100" height="40" as="geometry" />
        </mxCell>
        <mxCell id="2YiECAexeY38DyLzUJac-35" value="" style="rounded=1;whiteSpace=wrap;html=1;" parent="2YiECAexeY38DyLzUJac-1" vertex="1">
          <mxGeometry x="80" y="384" width="1010" height="60" as="geometry" />
        </mxCell>
        <mxCell id="2YiECAexeY38DyLzUJac-37" value="Dollar General" style="text;strokeColor=none;fillColor=none;html=1;fontSize=24;fontStyle=1;verticalAlign=middle;align=center;" parent="2YiECAexeY38DyLzUJac-1" vertex="1">
          <mxGeometry x="140" y="394" width="100" height="40" as="geometry" />
        </mxCell>
        <mxCell id="2YiECAexeY38DyLzUJac-38" value="" style="shape=ext;double=1;rounded=1;whiteSpace=wrap;html=1;" parent="2YiECAexeY38DyLzUJac-1" vertex="1">
          <mxGeometry x="690" y="389" width="170" height="50" as="geometry" />
        </mxCell>
        <mxCell id="2YiECAexeY38DyLzUJac-39" value="" style="shape=ext;double=1;rounded=1;whiteSpace=wrap;html=1;" parent="2YiECAexeY38DyLzUJac-1" vertex="1">
          <mxGeometry x="870" y="389" width="100" height="50" as="geometry" />
        </mxCell>
        <mxCell id="2YiECAexeY38DyLzUJac-40" value="" style="shape=ext;double=1;rounded=1;whiteSpace=wrap;html=1;" parent="2YiECAexeY38DyLzUJac-1" vertex="1">
          <mxGeometry x="980" y="389" width="100" height="50" as="geometry" />
        </mxCell>
        <mxCell id="2YiECAexeY38DyLzUJac-41" value="View Counts" style="text;strokeColor=none;fillColor=none;html=1;fontSize=24;fontStyle=1;verticalAlign=middle;align=center;" parent="2YiECAexeY38DyLzUJac-1" vertex="1">
          <mxGeometry x="725" y="394" width="100" height="40" as="geometry" />
        </mxCell>
        <mxCell id="2YiECAexeY38DyLzUJac-42" value="Edit" style="text;strokeColor=none;fillColor=none;html=1;fontSize=24;fontStyle=1;verticalAlign=middle;align=center;" parent="2YiECAexeY38DyLzUJac-1" vertex="1">
          <mxGeometry x="870" y="394" width="100" height="40" as="geometry" />
        </mxCell>
        <mxCell id="2YiECAexeY38DyLzUJac-43" value="Delete" style="text;strokeColor=none;fillColor=none;html=1;fontSize=24;fontStyle=1;verticalAlign=middle;align=center;" parent="2YiECAexeY38DyLzUJac-1" vertex="1">
          <mxGeometry x="980" y="394" width="100" height="40" as="geometry" />
        </mxCell>
        <mxCell id="2YiECAexeY38DyLzUJac-44" value="" style="rounded=1;whiteSpace=wrap;html=1;" parent="2YiECAexeY38DyLzUJac-1" vertex="1">
          <mxGeometry x="80" y="450" width="1010" height="60" as="geometry" />
        </mxCell>
        <mxCell id="2YiECAexeY38DyLzUJac-46" value="Build a Bear" style="text;strokeColor=none;fillColor=none;html=1;fontSize=24;fontStyle=1;verticalAlign=middle;align=center;" parent="2YiECAexeY38DyLzUJac-1" vertex="1">
          <mxGeometry x="140" y="460" width="100" height="40" as="geometry" />
        </mxCell>
        <mxCell id="2YiECAexeY38DyLzUJac-47" value="" style="shape=ext;double=1;rounded=1;whiteSpace=wrap;html=1;" parent="2YiECAexeY38DyLzUJac-1" vertex="1">
          <mxGeometry x="690" y="455" width="170" height="50" as="geometry" />
        </mxCell>
        <mxCell id="2YiECAexeY38DyLzUJac-48" value="" style="shape=ext;double=1;rounded=1;whiteSpace=wrap;html=1;" parent="2YiECAexeY38DyLzUJac-1" vertex="1">
          <mxGeometry x="870" y="455" width="100" height="50" as="geometry" />
        </mxCell>
        <mxCell id="2YiECAexeY38DyLzUJac-49" value="" style="shape=ext;double=1;rounded=1;whiteSpace=wrap;html=1;" parent="2YiECAexeY38DyLzUJac-1" vertex="1">
          <mxGeometry x="980" y="455" width="100" height="50" as="geometry" />
        </mxCell>
        <mxCell id="2YiECAexeY38DyLzUJac-50" value="View Counts" style="text;strokeColor=none;fillColor=none;html=1;fontSize=24;fontStyle=1;verticalAlign=middle;align=center;" parent="2YiECAexeY38DyLzUJac-1" vertex="1">
          <mxGeometry x="725" y="460" width="100" height="40" as="geometry" />
        </mxCell>
        <mxCell id="2YiECAexeY38DyLzUJac-51" value="Edit" style="text;strokeColor=none;fillColor=none;html=1;fontSize=24;fontStyle=1;verticalAlign=middle;align=center;" parent="2YiECAexeY38DyLzUJac-1" vertex="1">
          <mxGeometry x="870" y="460" width="100" height="40" as="geometry" />
        </mxCell>
        <mxCell id="2YiECAexeY38DyLzUJac-52" value="Delete" style="text;strokeColor=none;fillColor=none;html=1;fontSize=24;fontStyle=1;verticalAlign=middle;align=center;" parent="2YiECAexeY38DyLzUJac-1" vertex="1">
          <mxGeometry x="980" y="460" width="100" height="40" as="geometry" />
        </mxCell>
        <mxCell id="2YiECAexeY38DyLzUJac-53" value="" style="rounded=1;whiteSpace=wrap;html=1;" parent="2YiECAexeY38DyLzUJac-1" vertex="1">
          <mxGeometry x="80" y="520" width="1010" height="60" as="geometry" />
        </mxCell>
        <mxCell id="2YiECAexeY38DyLzUJac-55" value="Gamestop" style="text;strokeColor=none;fillColor=none;html=1;fontSize=24;fontStyle=1;verticalAlign=middle;align=center;" parent="2YiECAexeY38DyLzUJac-1" vertex="1">
          <mxGeometry x="140" y="530" width="100" height="40" as="geometry" />
        </mxCell>
        <mxCell id="2YiECAexeY38DyLzUJac-56" value="" style="shape=ext;double=1;rounded=1;whiteSpace=wrap;html=1;" parent="2YiECAexeY38DyLzUJac-1" vertex="1">
          <mxGeometry x="690" y="525" width="170" height="50" as="geometry" />
        </mxCell>
        <mxCell id="2YiECAexeY38DyLzUJac-57" value="" style="shape=ext;double=1;rounded=1;whiteSpace=wrap;html=1;" parent="2YiECAexeY38DyLzUJac-1" vertex="1">
          <mxGeometry x="870" y="525" width="100" height="50" as="geometry" />
        </mxCell>
        <mxCell id="2YiECAexeY38DyLzUJac-58" value="" style="shape=ext;double=1;rounded=1;whiteSpace=wrap;html=1;" parent="2YiECAexeY38DyLzUJac-1" vertex="1">
          <mxGeometry x="980" y="525" width="100" height="50" as="geometry" />
        </mxCell>
        <mxCell id="2YiECAexeY38DyLzUJac-59" value="View Counts" style="text;strokeColor=none;fillColor=none;html=1;fontSize=24;fontStyle=1;verticalAlign=middle;align=center;" parent="2YiECAexeY38DyLzUJac-1" vertex="1">
          <mxGeometry x="725" y="530" width="100" height="40" as="geometry" />
        </mxCell>
        <mxCell id="2YiECAexeY38DyLzUJac-60" value="Edit" style="text;strokeColor=none;fillColor=none;html=1;fontSize=24;fontStyle=1;verticalAlign=middle;align=center;" parent="2YiECAexeY38DyLzUJac-1" vertex="1">
          <mxGeometry x="870" y="530" width="100" height="40" as="geometry" />
        </mxCell>
        <mxCell id="2YiECAexeY38DyLzUJac-61" value="Delete" style="text;strokeColor=none;fillColor=none;html=1;fontSize=24;fontStyle=1;verticalAlign=middle;align=center;" parent="2YiECAexeY38DyLzUJac-1" vertex="1">
          <mxGeometry x="980" y="530" width="100" height="40" as="geometry" />
        </mxCell>
        <mxCell id="2YiECAexeY38DyLzUJac-62" value="" style="rounded=1;whiteSpace=wrap;html=1;" parent="2YiECAexeY38DyLzUJac-1" vertex="1">
          <mxGeometry x="80" y="590" width="1010" height="60" as="geometry" />
        </mxCell>
        <mxCell id="2YiECAexeY38DyLzUJac-64" value="Books a Million" style="text;strokeColor=none;fillColor=none;html=1;fontSize=24;fontStyle=1;verticalAlign=middle;align=center;" parent="2YiECAexeY38DyLzUJac-1" vertex="1">
          <mxGeometry x="140" y="600" width="100" height="40" as="geometry" />
        </mxCell>
        <mxCell id="2YiECAexeY38DyLzUJac-65" value="" style="shape=ext;double=1;rounded=1;whiteSpace=wrap;html=1;" parent="2YiECAexeY38DyLzUJac-1" vertex="1">
          <mxGeometry x="690" y="595" width="170" height="50" as="geometry" />
        </mxCell>
        <mxCell id="2YiECAexeY38DyLzUJac-66" value="" style="shape=ext;double=1;rounded=1;whiteSpace=wrap;html=1;" parent="2YiECAexeY38DyLzUJac-1" vertex="1">
          <mxGeometry x="870" y="595" width="100" height="50" as="geometry" />
        </mxCell>
        <mxCell id="2YiECAexeY38DyLzUJac-67" value="" style="shape=ext;double=1;rounded=1;whiteSpace=wrap;html=1;" parent="2YiECAexeY38DyLzUJac-1" vertex="1">
          <mxGeometry x="980" y="595" width="100" height="50" as="geometry" />
        </mxCell>
        <mxCell id="2YiECAexeY38DyLzUJac-68" value="View Counts" style="text;strokeColor=none;fillColor=none;html=1;fontSize=24;fontStyle=1;verticalAlign=middle;align=center;" parent="2YiECAexeY38DyLzUJac-1" vertex="1">
          <mxGeometry x="725" y="600" width="100" height="40" as="geometry" />
        </mxCell>
        <mxCell id="2YiECAexeY38DyLzUJac-69" value="Edit" style="text;strokeColor=none;fillColor=none;html=1;fontSize=24;fontStyle=1;verticalAlign=middle;align=center;" parent="2YiECAexeY38DyLzUJac-1" vertex="1">
          <mxGeometry x="870" y="600" width="100" height="40" as="geometry" />
        </mxCell>
        <mxCell id="2YiECAexeY38DyLzUJac-70" value="Delete" style="text;strokeColor=none;fillColor=none;html=1;fontSize=24;fontStyle=1;verticalAlign=middle;align=center;" parent="2YiECAexeY38DyLzUJac-1" vertex="1">
          <mxGeometry x="980" y="600" width="100" height="40" as="geometry" />
        </mxCell>
        <mxCell id="2YiECAexeY38DyLzUJac-71" value="" style="rounded=1;whiteSpace=wrap;html=1;" parent="2YiECAexeY38DyLzUJac-1" vertex="1">
          <mxGeometry x="80" y="660" width="1010" height="60" as="geometry" />
        </mxCell>
        <mxCell id="2YiECAexeY38DyLzUJac-73" value="Lowes" style="text;strokeColor=none;fillColor=none;html=1;fontSize=24;fontStyle=1;verticalAlign=middle;align=center;" parent="2YiECAexeY38DyLzUJac-1" vertex="1">
          <mxGeometry x="140" y="670" width="100" height="40" as="geometry" />
        </mxCell>
        <mxCell id="2YiECAexeY38DyLzUJac-74" value="" style="shape=ext;double=1;rounded=1;whiteSpace=wrap;html=1;" parent="2YiECAexeY38DyLzUJac-1" vertex="1">
          <mxGeometry x="690" y="665" width="170" height="50" as="geometry" />
        </mxCell>
        <mxCell id="2YiECAexeY38DyLzUJac-75" value="" style="shape=ext;double=1;rounded=1;whiteSpace=wrap;html=1;" parent="2YiECAexeY38DyLzUJac-1" vertex="1">
          <mxGeometry x="870" y="665" width="100" height="50" as="geometry" />
        </mxCell>
        <mxCell id="2YiECAexeY38DyLzUJac-76" value="" style="shape=ext;double=1;rounded=1;whiteSpace=wrap;html=1;" parent="2YiECAexeY38DyLzUJac-1" vertex="1">
          <mxGeometry x="980" y="665" width="100" height="50" as="geometry" />
        </mxCell>
        <mxCell id="2YiECAexeY38DyLzUJac-77" value="View Counts" style="text;strokeColor=none;fillColor=none;html=1;fontSize=24;fontStyle=1;verticalAlign=middle;align=center;" parent="2YiECAexeY38DyLzUJac-1" vertex="1">
          <mxGeometry x="725" y="670" width="100" height="40" as="geometry" />
        </mxCell>
        <mxCell id="2YiECAexeY38DyLzUJac-78" value="Edit" style="text;strokeColor=none;fillColor=none;html=1;fontSize=24;fontStyle=1;verticalAlign=middle;align=center;" parent="2YiECAexeY38DyLzUJac-1" vertex="1">
          <mxGeometry x="870" y="670" width="100" height="40" as="geometry" />
        </mxCell>
        <mxCell id="2YiECAexeY38DyLzUJac-79" value="Delete" style="text;strokeColor=none;fillColor=none;html=1;fontSize=24;fontStyle=1;verticalAlign=middle;align=center;" parent="2YiECAexeY38DyLzUJac-1" vertex="1">
          <mxGeometry x="980" y="670" width="100" height="40" as="geometry" />
        </mxCell>
      </root>
    </mxGraphModel>
  </diagram>
</mxfile>
